<svg width="0" height="0" style="position:absolute" aria-hidden="true" focusable="false">
  <symbol id="i-brand" viewBox="0 0 24 24"><path d="M14.5 4.6c-4-1.2-8 1.5-8 5.6 0 1.8.8 3 .8 4.4V18h3.8"/><path d="M14.5 4.6c2.4.7 3.9 2.7 3.9 5.1 0 1.2-.3 2.1-.6 2.9"/><path fill="#C75B39" stroke="none" d="M13.6 10.4c.66-.8 1.95-.74 2.6.06.56.7.38 1.78-.36 2.46L13.6 15l-2.24-2.08c-.74-.68-.92-1.76-.36-2.46.65-.8 1.94-.86 2.6-.06z"/></symbol>
  <symbol id="i-alert" viewBox="0 0 24 24"><path d="M12 3.6 21.5 20H2.5L12 3.6Z"/><line x1="12" y1="9.5" x2="12" y2="14"/><line x1="12" y1="16.8" x2="12" y2="16.9"/></symbol>
  <symbol id="i-shield" viewBox="0 0 24 24"><path d="M12 3l7 2.5v5.5c0 4.2-3 7.6-7 9-4-1.4-7-4.8-7-9V5.5L12 3Z"/><path d="M9 12l2 2 4-4"/></symbol>
  <symbol id="i-book" viewBox="0 0 24 24"><path d="M12 6.2c-2-1.2-4.6-1.5-7-1v12c2.4-.5 5-.2 7 1 2-1.2 4.6-1.5 7-1v-12c-2.4-.5-5-.2-7 1Z"/><line x1="12" y1="6.2" x2="12" y2="19.2"/></symbol>
  <symbol id="i-heart" viewBox="0 0 24 24"><path d="M12 20S3.5 14.6 3.5 8.9A4.4 4.4 0 0 1 12 7a4.4 4.4 0 0 1 8.5 1.9C20.5 14.6 12 20 12 20Z"/></symbol>
  <symbol id="i-moon" viewBox="0 0 24 24"><path d="M20 14.5A8 8 0 1 1 9.5 4 6.3 6.3 0 0 0 20 14.5Z"/></symbol>
  <symbol id="i-drop" viewBox="0 0 24 24"><path d="M12 3.5c3.5 4 6 6.8 6 9.8a6 6 0 0 1-12 0c0-3 2.5-5.8 6-9.8Z"/></symbol>
  <symbol id="i-food" viewBox="0 0 24 24"><path d="M6 3v5a2.2 2.2 0 0 0 4.4 0V3M8.2 3v18"/><path d="M16.2 3c-1.5 0-2.4 1.9-2.4 4.6S15 11.4 16.2 11.4V21"/></symbol>
  <symbol id="i-compass" viewBox="0 0 24 24"><circle cx="12" cy="12" r="9"/><path d="M15.5 8.5l-2 5-5 2 2-5 5-2Z"/></symbol>
  <symbol id="i-walk" viewBox="0 0 24 24"><circle cx="13" cy="4.5" r="1.6"/><path d="M13 8l-3 3 1 4M13 8l3 2 2 1M10 14l-2 6M14 15l1 5"/></symbol>
  <symbol id="i-chat" viewBox="0 0 24 24"><path d="M4 5h16v11H9l-4 4V5Z"/></symbol>
  <symbol id="i-hand" viewBox="0 0 24 24"><path d="M12 21a7 7 0 0 1-7-7v-3a1.3 1.3 0 0 1 2.6 0M7.6 11V6.5a1.3 1.3 0 0 1 2.6 0V10M10.2 9.5V5a1.3 1.3 0 0 1 2.6 0v5M12.8 10V6.8a1.3 1.3 0 0 1 2.6 0V14a7 7 0 0 1-3.4 6"/></symbol>
  <symbol id="i-link" viewBox="0 0 24 24"><path d="M10 13.8a3.4 3.4 0 0 1 0-4.8l2-2a3.4 3.4 0 0 1 4.8 4.8l-1.1 1.1"/><path d="M14 10.2a3.4 3.4 0 0 1 0 4.8l-2 2a3.4 3.4 0 0 1-4.8-4.8l1.1-1.1"/></symbol>
  <symbol id="i-chev" viewBox="0 0 24 24"><path d="M9 6l6 6-6 6"/></symbol>
  <symbol id="i-people" viewBox="0 0 24 24"><circle cx="9" cy="7.5" r="3"/><path d="M3.2 20a5.8 5.8 0 0 1 11.6 0"/><path d="M15.6 5.1a3 3 0 0 1 0 5.8"/><path d="M17 13.3a5.8 5.8 0 0 1 3.8 6.7"/></symbol>
  <symbol id="i-clip" viewBox="0 0 24 24"><rect x="5" y="4" width="14" height="17" rx="2"/><rect x="9" y="2.4" width="6" height="3.4" rx="1"/><line x1="8.5" y1="10" x2="15.5" y2="10"/><line x1="8.5" y1="13.5" x2="15.5" y2="13.5"/><line x1="8.5" y1="17" x2="13" y2="17"/></symbol>
</svg>